<svg width="226" height="75" viewBox="0 0 226 75" fill="none" xmlns="http://www.w3.org/2000/svg">
<circle cx="37.415" cy="37.415" r="37.415" fill="#FA7275" fill-opacity="0.29"/>
<circle cx="55.945" cy="49.945" r="24.945" fill="#FA7275"/>
<path d="M85.3845 41.9404C85.3845 39.3959 85.9708 37.1132 87.1433 35.0926C88.3407 33.0719 89.9498 31.5002 91.9705 30.3776C94.0161 29.2301 96.2488 28.6563 98.6686 28.6563C101.438 28.6563 103.895 29.3424 106.04 30.7144C108.211 32.0615 109.782 33.9824 110.755 36.4771H105.629C104.955 35.105 104.02 34.0822 102.822 33.4087C101.625 32.7351 100.24 32.3983 98.6686 32.3983C96.9473 32.3983 95.4131 32.785 94.066 33.5583C92.7189 34.3317 91.6586 35.4418 90.8853 36.8887C90.1369 38.3356 89.7627 40.0195 89.7627 41.9404C89.7627 43.8613 90.1369 45.5452 90.8853 46.9921C91.6586 48.439 92.7189 49.5616 94.066 50.3599C95.4131 51.1333 96.9473 51.5199 98.6686 51.5199C100.24 51.5199 101.625 51.1832 102.822 50.5096C104.02 49.836 104.955 48.8132 105.629 47.4412H110.755C109.782 49.9358 108.211 51.8567 106.04 53.2038C103.895 54.551 101.438 55.2245 98.6686 55.2245C96.2239 55.2245 93.9911 54.6632 91.9705 53.5406C89.9498 52.3931 88.3407 50.809 87.1433 48.7883C85.9708 46.7676 85.3845 44.485 85.3845 41.9404ZM118.948 27.7855V55H115.812V27.7855H118.948ZM132.984 55.4252C131.142 55.4252 129.525 54.9867 128.134 54.1097C126.752 53.2326 125.671 52.0057 124.892 50.4288C124.121 48.8519 123.735 47.0093 123.735 44.9009C123.735 42.7747 124.121 40.9188 124.892 39.333C125.671 37.7473 126.752 36.5159 128.134 35.6389C129.525 34.7618 131.142 34.3233 132.984 34.3233C134.827 34.3233 136.439 34.7618 137.821 35.6389C139.212 36.5159 140.293 37.7473 141.064 39.333C141.843 40.9188 142.233 42.7747 142.233 44.9009C142.233 47.0093 141.843 48.8519 141.064 50.4288C140.293 52.0057 139.212 53.2326 137.821 54.1097C136.439 54.9867 134.827 55.4252 132.984 55.4252ZM132.984 52.6081C134.384 52.6081 135.536 52.2493 136.439 51.5317C137.343 50.8142 138.012 49.8707 138.446 48.7013C138.88 47.5319 139.097 46.2651 139.097 44.9009C139.097 43.5366 138.88 42.2653 138.446 41.0871C138.012 39.9089 137.343 38.9565 136.439 38.2301C135.536 37.5037 134.384 37.1405 132.984 37.1405C131.584 37.1405 130.433 37.5037 129.529 38.2301C128.626 38.9565 127.957 39.9089 127.523 41.0871C127.089 42.2653 126.872 43.5366 126.872 44.9009C126.872 46.2651 127.089 47.5319 127.523 48.7013C127.957 49.8707 128.626 50.8142 129.529 51.5317C130.433 52.2493 131.584 52.6081 132.984 52.6081ZM159.883 46.6549V34.5891H163.019V55H159.883V51.545H159.671C159.192 52.5815 158.448 53.463 157.438 54.1894C156.428 54.907 155.152 55.2658 153.611 55.2658C152.335 55.2658 151.201 54.9867 150.209 54.4286C149.217 53.8616 148.437 53.0112 147.87 51.8772C147.303 50.7344 147.02 49.2949 147.02 47.5585V34.5891H150.156V47.3459C150.156 48.8342 150.572 50.0213 151.405 50.9072C152.247 51.7931 153.319 52.236 154.621 52.236C155.401 52.236 156.193 52.0367 157 51.638C157.815 51.2394 158.497 50.6281 159.046 49.8043C159.604 48.9804 159.883 47.9306 159.883 46.6549ZM176.47 55.4252C174.769 55.4252 173.268 54.9956 171.966 54.1363C170.663 53.2681 169.645 52.0456 168.909 50.4687C168.174 48.8829 167.806 47.0093 167.806 44.8477C167.806 42.7038 168.174 40.8435 168.909 39.2666C169.645 37.6897 170.668 36.4716 171.979 35.6123C173.29 34.753 174.805 34.3233 176.523 34.3233C177.852 34.3233 178.902 34.5448 179.673 34.9877C180.452 35.4218 181.046 35.9179 181.453 36.476C181.87 37.0253 182.193 37.4771 182.424 37.8314H182.689V27.7855H185.825V55H182.796V51.8639H182.424C182.193 52.236 181.865 52.7055 181.44 53.2725C181.015 53.8306 180.408 54.3312 179.62 54.7741C178.831 55.2082 177.781 55.4252 176.47 55.4252ZM176.896 52.6081C178.154 52.6081 179.217 52.2803 180.085 51.6248C180.953 50.9603 181.613 50.0434 182.065 48.8741C182.517 47.6958 182.742 46.336 182.742 44.7945C182.742 43.2708 182.521 41.9375 182.078 40.7948C181.635 39.6431 180.98 38.7483 180.111 38.1105C179.243 37.4638 178.171 37.1405 176.896 37.1405C175.567 37.1405 174.459 37.4815 173.573 38.1637C172.696 38.8369 172.036 39.7538 171.593 40.9143C171.159 42.066 170.942 43.3594 170.942 44.7945C170.942 46.2474 171.164 47.5674 171.607 48.7545C172.059 49.9327 172.723 50.8718 173.6 51.5716C174.486 52.2626 175.584 52.6081 176.896 52.6081ZM206.731 28.9931V55H202.465V28.9931H206.731ZM216.56 37.3003V49.387C216.56 50.3849 216.772 51.0958 217.196 51.5199C217.62 51.9191 218.356 52.1187 219.404 52.1187H221.911V55H218.843C216.947 55 215.525 54.5634 214.577 53.6903C213.629 52.8172 213.155 51.3827 213.155 49.387V37.3003H210.498V34.4938H213.155V29.3299H216.56V34.4938H221.911V37.3003H216.56Z" fill="#FA7275"/>
</svg>
